HIERARCHY
ROOT Hips
{
	OFFSET 47.408100 -16.134415 95.585602
	CHANNELS 6 Xposition Yposition Zposition Xrotation Yrotation Zrotation
	JOINT spine
	{
		OFFSET 0.000000 -0.458069 7.965683
		CHANNELS 3 Xrotation Yrotation Zrotation
		JOINT spine1
		{
			OFFSET 0.000000 -0.000002 10.243103
			CHANNELS 3 Xrotation Yrotation Zrotation
			JOINT spine2
			{
				OFFSET 0.000000 -0.000002 9.814751
				CHANNELS 3 Xrotation Yrotation Zrotation
				JOINT Neck
				{
					OFFSET 0.000000 -1.201384 25.198601
					CHANNELS 3 Xrotation Yrotation Zrotation
					JOINT Head
					{
						OFFSET 0.000000 0.000000 7.613144
						CHANNELS 3 Xrotation Yrotation Zrotation
						End Site
						{
							OFFSET 0.000000 6.077326 18.428101
						}
					}
				}
				JOINT RightShoulder
				{
					OFFSET -4.132702 0.575451 10.599205
					CHANNELS 3 Xrotation Yrotation Zrotation
					JOINT RightArm
					{
						OFFSET 0.000000 -0.000004 13.901794
						CHANNELS 3 Xrotation Yrotation Zrotation
						JOINT RightArmRoll
						{
							OFFSET 0.000000 0.000000 7.017883
							CHANNELS 3 Xrotation Yrotation Zrotation
							JOINT RightForeArm
							{
								OFFSET 0.000000 -0.000004 20.440598
								CHANNELS 3 Xrotation Yrotation Zrotation
								JOINT RightForeArmRoll
								{
									OFFSET 0.000000 -0.000002 7.875153
									CHANNELS 3 Xrotation Yrotation Zrotation
									JOINT RightHand
									{
										OFFSET 0.000000 -0.000002 15.803696
										CHANNELS 3 Xrotation Yrotation Zrotation
										End Site
										{
											OFFSET 0.000000 0.000000 0.100006
										}
									}
								}
							}
						}
					}
				}
				JOINT LeftShoulder
				{
					OFFSET 4.132702 0.575451 10.599205
					CHANNELS 3 Xrotation Yrotation Zrotation
					JOINT LeftArm
					{
						OFFSET 0.000000 -0.000004 13.901794
						CHANNELS 3 Xrotation Yrotation Zrotation
						JOINT LeftArmRoll
						{
							OFFSET 0.000000 0.000000 7.017883
							CHANNELS 3 Xrotation Yrotation Zrotation
							JOINT LeftForeArm
							{
								OFFSET 0.000000 -0.000004 20.440598
								CHANNELS 3 Xrotation Yrotation Zrotation
								JOINT LeftForeArmRoll
								{
									OFFSET 0.000000 -0.000002 7.875168
									CHANNELS 3 Xrotation Yrotation Zrotation
									JOINT LeftHand
									{
										OFFSET 0.000000 -0.000002 15.803696
										CHANNELS 3 Xrotation Yrotation Zrotation
										End Site
										{
											OFFSET 0.000000 0.000000 0.100006
										}
									}
								}
							}
						}
					}
				}
			}
		}
	}
	JOINT RightUpLeg
	{
		OFFSET -7.060482 1.086090 -1.294701
		CHANNELS 3 Xrotation Yrotation Zrotation
		JOINT RightUpLegRoll
		{
			OFFSET 0.000000 -0.000003 18.530800
			CHANNELS 3 Xrotation Yrotation Zrotation
			JOINT RightLeg
			{
				OFFSET 0.000000 0.000004 -22.947601
				CHANNELS 3 Xrotation Yrotation Zrotation
				JOINT RightLegRoll
				{
					OFFSET 0.000000 -0.000004 23.022598
					CHANNELS 3 Xrotation Yrotation Zrotation
					JOINT RightFoot
					{
						OFFSET 0.000000 -0.000004 19.162506
						CHANNELS 3 Xrotation Yrotation Zrotation
						JOINT RightToeBase
						{
							OFFSET 0.000000 -0.000002 16.018799
							CHANNELS 3 Xrotation Yrotation Zrotation
							End Site
							{
								OFFSET 0.006790 0.894205 7.757812
							}
						}
					}
				}
			}
		}
	}
	JOINT LeftUpLeg
	{
		OFFSET 7.060482 1.086090 -1.294701
		CHANNELS 3 Xrotation Yrotation Zrotation
		JOINT LeftUpLegRoll
		{
			OFFSET 0.000000 -0.000003 18.530899
			CHANNELS 3 Xrotation Yrotation Zrotation
			JOINT LeftLeg
			{
				OFFSET 0.000000 -0.000004 22.947502
				CHANNELS 3 Xrotation Yrotation Zrotation
				JOINT LeftLegRoll
				{
					OFFSET 0.000000 -0.000004 23.235504
					CHANNELS 3 Xrotation Yrotation Zrotation
					JOINT LeftFoot
					{
						OFFSET 0.000000 -0.000003 18.949600
						CHANNELS 3 Xrotation Yrotation Zrotation
						JOINT LeftToeBase
						{
							OFFSET 0.000000 -0.000003 16.018799
							CHANNELS 3 Xrotation Yrotation Zrotation
							End Site
							{
								OFFSET -0.030430 0.894206 7.757812
							}
						}
					}
				}
			}
		}
	}
}
MOTION
Frames: 9
Frame Time: 0.041667
48.803997 -20.829517 99.246590 1.822957 -0.976839 -2.783192 -2.341008 0.323799 -0.127529 -0.678545 0.651472 -0.244987 0.966560 0.648481 -0.252771 31.548627 -0.613144 0.111121 -12.123778 0.450393 0.039822 -11.389112 -40.372319 -12.405354 -143.073858 -159.319203 -99.478365 0.000001 0.000002 0.000012 48.251045 5.973760 1.680116 -0.000000 0.000001 -3.010360 -5.000190 -7.999611 0.000068 -5.963351 40.908779 5.302814 -144.841169 164.073862 106.335643 -0.000004 0.000000 -0.000001 51.419088 -4.877727 -2.414722 0.000002 -0.000009 3.003880 -5.000157 8.000177 0.000047 -4.237268 -156.548305 6.972056 -179.999991 0.000005 -1.686997 171.819132 -1.247182 -0.685285 -0.000005 -0.000002 0.003565 66.446273 7.137808 1.701304 25.456649 -7.355621 -0.000295 -9.222074 159.833421 -3.197132 -0.000020 -0.000002 -1.299110 -13.702273 -2.430897 0.160097 -0.000002 -0.000000 -0.228357 69.267421 -7.075947 -1.632168 25.453526 7.355624 0.003869 
48.778797 -20.722715 99.563293 1.790022 -0.876846 -2.764558 -2.335415 0.310495 -0.128944 -0.667348 0.624903 -0.248259 0.977757 0.621875 -0.255725 31.474167 -0.782257 0.118049 -11.881579 0.610352 0.023401 -11.410667 -41.028731 -12.470448 -143.273996 -159.041501 -100.114830 0.000001 -0.000001 0.000010 48.080577 5.761586 1.605689 -0.000001 0.000001 -3.010361 -5.000191 -7.999614 0.000067 -5.906500 41.246177 5.264057 -144.908050 163.608302 106.813579 -0.000003 -0.000000 0.000002 51.162625 -4.652712 -2.360993 0.000003 -0.000010 3.003881 -5.000157 8.000178 0.000048 -3.938800 -156.902928 6.798003 -179.999991 0.000005 -1.671998 172.366790 -1.239918 -0.665152 -0.000004 -0.000001 -0.006008 66.464475 7.131453 1.713189 25.456959 -7.355613 0.000003 -8.932956 159.896737 -3.258238 -0.000019 -0.000003 -1.296920 -13.147579 -2.362783 0.155778 -0.000001 -0.000003 -0.211810 69.205819 -7.073544 -1.643161 25.456957 7.355611 -0.000009 
48.763397 -20.774521 99.995193 1.746812 -0.799206 -2.736737 -2.326842 0.302225 -0.130259 -0.650216 0.608385 -0.251183 0.994890 0.605324 -0.258450 31.405804 -0.968695 0.125678 -11.678899 0.779497 0.005387 -11.439043 -41.679761 -12.542754 -143.485964 -158.749907 -100.744423 -0.000001 0.000000 0.000011 47.923247 5.548959 1.536177 -0.000000 0.000001 -3.010361 -5.000189 -7.999608 0.000067 -5.850873 41.582298 5.226547 -144.963921 163.161430 107.246387 -0.000000 0.000000 -0.000001 50.901876 -4.441651 -2.312333 0.000001 -0.000010 3.003879 -5.000156 8.000177 0.000049 -3.669275 -157.212021 6.650723 -179.999991 0.000004 -1.655004 172.831325 -1.245194 -0.648600 -0.000004 -0.000002 -0.014106 66.497929 7.125351 1.723742 25.456957 -7.355617 -0.000002 -8.653573 159.995788 -3.298778 -0.000021 -0.000004 -1.295470 -12.634346 -2.299563 0.151891 -0.000001 -0.000003 -0.193908 69.133706 -7.072307 -1.652442 25.456957 7.355612 -0.000010 
48.714996 -20.813519 100.347000 1.697212 -0.737702 -2.700412 -2.316050 0.297683 -0.131530 -0.628619 0.599322 -0.253908 1.016485 0.596229 -0.261065 31.338639 -1.174836 0.132212 -11.504937 0.959524 -0.015636 -11.477061 -42.332573 -12.628620 -143.707604 -158.449952 -101.374815 0.000000 -0.000001 0.000011 47.777047 5.331497 1.472786 0.000000 0.000001 -3.010361 -5.000192 -7.999615 0.000067 -5.800131 41.920768 5.196060 -145.002170 162.735759 107.638645 -0.000000 0.000000 -0.000003 50.634190 -4.241486 -2.267731 0.000002 -0.000010 3.003879 -5.000157 8.000180 0.000049 -3.429066 -157.488330 6.526066 -179.999991 0.000003 -1.636003 173.219321 -1.265096 -0.635414 -0.000005 -0.000001 -0.019166 66.559217 7.117982 1.734826 25.456957 -7.355613 -0.000001 -8.383868 160.122638 -3.322426 -0.000020 -0.000004 -1.294740 -12.153344 -2.241702 0.147988 -0.000001 0.000000 -0.176824 69.058526 -7.070952 -1.662397 25.456959 7.355613 -0.000010 
48.692795 -20.812620 100.746994 1.642190 -0.690795 -2.656636 -2.303262 0.296436 -0.132709 -0.603033 0.596844 -0.256349 1.042076 0.593723 -0.263478 31.271751 -1.397134 0.137577 -11.356209 1.148090 -0.039236 -11.524155 -42.984542 -12.726874 -143.937931 -158.141132 -102.004408 -0.000003 0.000002 0.000010 47.641379 5.110158 1.415085 0.000001 -0.000000 -3.010361 -5.000193 -7.999611 0.000067 -5.753677 42.260337 5.171662 -145.022634 162.327205 107.993699 0.000001 0.000001 -0.000001 50.360484 -4.050910 -2.227006 0.000001 -0.000007 3.003880 -5.000156 8.000179 0.000048 -3.215938 -157.734681 6.421425 -179.999991 0.000004 -1.613997 173.537772 -1.296707 -0.623864 -0.000005 -0.000001 -0.021516 66.644929 7.109533 1.746215 25.456955 -7.355613 0.000001 -8.124541 160.275334 -3.330148 -0.000020 -0.000002 -1.294590 -11.703761 -2.188609 0.144218 -0.000001 0.000000 -0.160581 68.981516 -7.069419 -1.672628 25.456959 7.355615 -0.000013 
48.715595 -20.828117 101.073997 1.582733 -0.656947 -2.606449 -2.288720 0.298054 -0.133748 -0.573937 0.600084 -0.258431 1.071168 0.596939 -0.265598 31.203880 -1.632036 0.141677 -11.229223 1.342870 -0.064980 -11.579746 -43.633120 -12.836331 -144.175676 -157.822750 -102.631256 -0.000000 0.000003 0.000007 47.515553 4.885949 1.362680 -0.000000 0.000002 -3.010360 -5.000193 -7.999613 0.000068 -5.710900 42.600125 5.152427 -145.025639 161.931791 108.314929 0.000000 0.000001 0.000003 50.081986 -3.868570 -2.189954 0.000002 -0.000010 3.003881 -5.000157 8.000179 0.000048 -3.027660 -157.954859 6.334135 -179.999991 0.000005 -1.589996 173.793699 -1.337119 -0.615387 -0.000004 -0.000002 -0.021488 66.751507 7.100276 1.758001 25.456953 -7.355617 0.000001 -7.876327 160.449886 -3.322706 -0.000020 -0.000003 -1.294900 -11.284872 -2.139689 0.140688 -0.000001 -0.000001 -0.145200 68.903433 -7.067767 -1.683311 25.456957 7.355612 -0.000011 
48.683292 -20.842216 101.467995 1.519812 -0.634617 -2.550893 -2.272660 0.302102 -0.134597 -0.541807 0.608175 -0.260071 1.103302 0.605011 -0.267335 31.133853 -1.876017 0.144436 -11.120678 1.541526 -0.092440 -11.643216 -44.275950 -12.955802 -144.419705 -157.494231 -103.253766 -0.000001 0.000001 0.000009 47.398958 4.659870 1.315119 0.000001 0.000004 -3.010361 -5.000192 -7.999611 0.000069 -5.671239 42.939173 5.137441 -145.011760 161.545763 108.606100 -0.000000 -0.000000 0.000003 49.799900 -3.693105 -2.156377 0.000002 -0.000010 3.003881 -5.000157 8.000178 0.000048 -2.862069 -158.152716 6.261372 -179.999991 0.000003 -1.563999 173.994206 -1.386351 -0.607840 -0.000004 -0.000002 -0.019408 66.875530 7.090372 1.770152 25.456950 -7.355616 0.000001 -7.639876 160.644301 -3.301232 -0.000020 -0.000000 -1.295540 -10.895969 -2.094335 0.137477 -0.000001 -0.000003 -0.130697 68.825337 -7.065911 -1.694350 25.456959 7.355614 -0.000012 
48.696297 -20.970917 101.801994 1.454406 -0.622256 -2.491022 -2.255331 0.308147 -0.135211 -0.507121 0.620250 -0.261189 1.137996 0.617072 -0.268599 31.060340 -2.125519 0.145753 -11.027056 1.741719 -0.121213 -11.713832 -44.910403 -13.083952 -144.668666 -157.154716 -103.870013 0.000001 0.000004 0.000011 47.290976 4.432948 1.271999 -0.000002 0.000003 -3.010362 -5.000192 -7.999612 0.000068 -5.634028 43.276208 5.125703 -144.982103 161.165226 108.871002 -0.000000 -0.000003 -0.000002 49.515392 -3.523181 -2.126047 0.000002 -0.000008 3.003881 -5.000157 8.000176 0.000049 -2.717026 -158.333115 6.200235 -179.999991 0.000004 -1.537006 174.146287 -1.439459 -0.602558 -0.000004 -0.000002 -0.015607 67.013622 7.080035 1.782331 25.456955 -7.355614 -0.000002 -7.415863 160.855613 -3.266776 -0.000020 -0.000002 -1.296390 -10.536134 -2.051971 0.134638 -0.000001 -0.000001 -0.117093 68.748081 -7.063964 -1.705521 25.456957 7.355613 -0.000011 
48.663998 -20.984917 102.181992 1.387503 -0.618308 -2.427874 -2.236953 0.315757 -0.135538 -0.470356 0.635443 -0.261704 1.174762 0.632259 -0.269296 30.982203 -2.377011 0.145523 -10.944959 1.941135 -0.150915 -11.790861 -45.534139 -13.219460 -144.921178 -156.803685 -104.478528 -0.000000 0.000002 0.000009 47.190754 4.206225 1.232911 -0.000002 0.000003 -3.010360 -5.000192 -7.999614 0.000065 -5.598667 43.610365 5.116275 -144.938240 160.786410 109.113474 0.000000 -0.000001 0.000002 49.229435 -3.357458 -2.098746 0.000002 -0.000008 3.003879 -5.000157 8.000178 0.000049 -2.590406 -158.499977 6.147690 -179.999991 0.000005 -1.509001 174.257018 -1.496456 -0.597487 -0.000004 -0.000002 -0.010418 67.162377 7.069408 1.794600 25.456957 -7.355619 0.000001 -7.204853 161.081747 -3.220621 -0.000021 -0.000000 -1.297320 -10.204658 -2.012016 0.132190 -0.000001 0.000001 -0.104407 68.672689 -7.061822 -1.717036 25.456957 7.355613 -0.000011 
